<svg width="350" height="350" viewBox="0 0 350 350" fill="none" xmlns="http://www.w3.org/2000/svg">
<g clip-path="url(#clip0_10_2)">
<path d="M175 350C271.65 350 350 271.65 350 175C350 78.3502 271.65 0 175 0C78.3502 0 0 78.3502 0 175C0 271.65 78.3502 350 175 350Z" fill="#324A5E"/>
<path d="M267.323 282.963H82.6772C81.5059 282.963 80.6102 281.998 80.6102 280.896V69.1733C80.6102 68.002 81.5748 67.1063 82.6772 67.1063H267.323C268.494 67.1063 269.39 68.0709 269.39 69.1733V280.896C269.39 281.998 268.494 282.963 267.323 282.963Z" fill="#CED5E0"/>
<path d="M80.6102 75.374V274.626C80.6102 279.242 84.3307 282.894 88.8779 282.894H236.319V258.091C236.319 253.543 240.039 249.823 244.587 249.823H269.39V75.374C269.39 70.7579 265.669 67.1063 261.122 67.1063H88.8779C84.2618 67.0374 80.6102 70.7579 80.6102 75.374Z" fill="white"/>
<path d="M236.319 282.963L269.39 249.892H244.587C240.039 249.892 236.319 253.612 236.319 258.159V282.963Z" fill="#E6E9EE"/>
<path d="M100.177 76.3386H89.0846V81.5059H100.177V76.3386Z" fill="#CED5E0"/>
<path d="M98.1103 56.7028H91.1516V78.9567H98.1103V56.7028Z" fill="#324A5E"/>
<path d="M123.12 76.3386H112.028V81.5059H123.12V76.3386Z" fill="#CED5E0"/>
<path d="M121.053 56.7028H114.094V78.9567H121.053V56.7028Z" fill="#324A5E"/>
<path d="M146.132 76.3386H135.039V81.5059H146.132V76.3386Z" fill="#CED5E0"/>
<path d="M143.996 56.7028H137.037V78.9567H143.996V56.7028Z" fill="#324A5E"/>
<path d="M169.075 76.3386H157.982V81.5059H169.075V76.3386Z" fill="#CED5E0"/>
<path d="M167.008 56.7028H160.049V78.9567H167.008V56.7028Z" fill="#324A5E"/>
<path d="M192.018 76.3386H180.925V81.5059H192.018V76.3386Z" fill="#CED5E0"/>
<path d="M189.951 56.7028H182.992V78.9567H189.951V56.7028Z" fill="#324A5E"/>
<path d="M215.03 76.3386H203.937V81.5059H215.03V76.3386Z" fill="#CED5E0"/>
<path d="M212.894 56.7028H205.935V78.9567H212.894V56.7028Z" fill="#324A5E"/>
<path d="M237.972 76.3386H226.88V81.5059H237.972V76.3386Z" fill="#CED5E0"/>
<path d="M235.905 56.7028H228.947V78.9567H235.905V56.7028Z" fill="#324A5E"/>
<path d="M260.915 76.3386H249.823V81.5059H260.915V76.3386Z" fill="#CED5E0"/>
<path d="M258.848 56.7028H251.89V78.9567H258.848V56.7028Z" fill="#324A5E"/>
<path d="M121.949 147.717H100.522C97.6969 147.717 95.3544 145.374 95.3544 142.549V121.122C95.3544 118.297 97.6969 115.955 100.522 115.955H121.949C124.774 115.955 127.116 118.297 127.116 121.122V142.618C127.047 145.443 124.774 147.717 121.949 147.717ZM100.866 142.274H121.673V121.467H100.866V142.274Z" fill="#E6E9EE"/>
<path d="M121.949 198.907H100.522C97.6969 198.907 95.3544 196.565 95.3544 193.74V172.313C95.3544 169.488 97.6969 167.146 100.522 167.146H121.949C124.774 167.146 127.116 169.488 127.116 172.313V193.74C127.047 196.565 124.774 198.907 121.949 198.907ZM100.866 193.396H121.673V172.589H100.866V193.396Z" fill="#E6E9EE"/>
<path d="M121.949 250.03H100.522C97.6969 250.03 95.3544 247.687 95.3544 244.862V223.435C95.3544 220.61 97.6969 218.268 100.522 218.268H121.949C124.774 218.268 127.116 220.61 127.116 223.435V244.862C127.047 247.687 124.774 250.03 121.949 250.03ZM100.866 244.587H121.673V223.78H100.866V244.587Z" fill="#E6E9EE"/>
<path d="M109.892 136.624C110.374 137.244 111.063 137.657 111.89 137.726C111.959 137.726 112.028 137.726 112.096 137.726C112.854 137.726 113.543 137.451 114.026 136.9L142.343 108.583C143.445 107.48 143.445 105.758 142.343 104.724C141.24 103.622 139.518 103.622 138.484 104.724L112.372 130.837L108.514 125.531C107.618 124.291 105.896 124.016 104.724 124.911C103.484 125.807 103.278 127.529 104.104 128.701L109.892 136.624Z" fill="#FF7058"/>
<path d="M138.484 155.846L112.372 181.959L108.514 176.654C107.618 175.413 105.896 175.138 104.724 176.033C103.484 176.929 103.278 178.652 104.104 179.823L109.892 187.677C110.374 188.297 111.063 188.711 111.89 188.78C111.959 188.78 112.028 188.78 112.096 188.78C112.854 188.78 113.543 188.504 114.026 187.953L142.343 159.636C143.445 158.533 143.445 156.811 142.343 155.778C141.309 154.813 139.587 154.813 138.484 155.846Z" fill="#FF7058"/>
<path d="M138.484 207.037L112.372 233.15L108.514 227.844C107.618 226.604 105.896 226.329 104.724 227.224C103.484 228.12 103.278 229.842 104.104 231.014L109.892 238.868C110.374 239.488 111.063 239.902 111.89 239.97C111.959 239.97 112.028 239.97 112.096 239.97C112.854 239.97 113.543 239.695 114.026 239.144L142.343 210.827C143.445 209.724 143.445 208.002 142.343 206.968C141.309 205.935 139.587 205.935 138.484 207.037Z" fill="#FF7058"/>
<path d="M229.774 120.846H149.232V127.116H229.774V120.846Z" fill="#84DBFF"/>
<path d="M197.874 136.693H149.232V142.963H197.874V136.693Z" fill="#84DBFF"/>
<path d="M229.774 171.969H149.232V178.238H229.774V171.969Z" fill="#84DBFF"/>
<path d="M197.874 187.815H149.232V194.085H197.874V187.815Z" fill="#84DBFF"/>
<path d="M229.774 223.091H149.232V229.36H229.774V223.091Z" fill="#84DBFF"/>
<path d="M197.874 238.937H149.232V245.207H197.874V238.937Z" fill="#84DBFF"/>
</g>
<defs>
<clipPath id="clip0_10_2">
<rect width="350" height="350" fill="white"/>
</clipPath>
</defs>
</svg>
