<svg width="352" height="352" viewBox="0 0 352 352" fill="none" xmlns="http://www.w3.org/2000/svg">
<g clip-path="url(#clip0_18_2)">
<path d="M303.529 191.393L203.833 341.335L105.305 190.623L303.529 191.393Z" fill="#CEE8FA"/>
<path d="M255.495 132.868L255.305 181.752L303.566 181.939C307.044 181.953 310.234 183.875 311.871 186.943C313.508 190.013 313.326 193.731 311.402 196.627L211.705 346.569C209.946 349.216 206.975 350.801 203.796 350.789C200.617 350.777 197.658 349.168 195.92 346.508L97.3918 195.795C96.3609 194.218 95.8443 192.404 95.8514 190.585C95.8573 189.048 96.2379 187.508 96.9987 186.108C98.6595 183.053 101.864 181.156 105.342 181.169L236.397 181.678L236.587 132.794C236.608 127.574 240.856 123.357 246.077 123.377C251.299 123.398 255.516 127.648 255.495 132.868ZM122.824 200.145L203.899 324.161L285.936 200.778L122.824 200.145Z" fill="#2D527C"/>
<path d="M38.9587 9.60027C38.9462 12.8165 40.581 15.8943 43.4125 17.6601L106.347 56.8902C137.843 76.5245 156.561 110.403 156.417 147.518C156.396 152.738 160.612 156.988 165.833 157.008C171.054 157.028 175.303 152.811 175.323 147.591C175.406 126.298 170.007 105.191 159.709 86.5523C149.411 67.9137 134.417 52.1081 116.347 40.844L81.6564 19.2196L124.055 19.3843C171.431 19.5684 214.002 49.6391 229.989 94.211C231.752 99.1254 237.164 101.68 242.079 99.9168C246.994 98.1537 249.549 92.7427 247.786 87.8256C229.123 35.7942 179.429 0.690503 124.129 0.475649L48.4495 0.181617C44.2228 0.165196 40.4994 2.95553 39.3283 7.01701C39.0823 7.87397 38.962 8.74236 38.9587 9.60027Z" fill="#2D527C"/>
</g>
<defs>
<clipPath id="clip0_18_2">
<rect width="350" height="350" fill="white" transform="matrix(0.0038852 -0.999992 -0.999992 -0.0038852 349.997 351.357)"/>
</clipPath>
</defs>
</svg>
