<svg width="350" height="350" viewBox="0 0 350 350" fill="none" xmlns="http://www.w3.org/2000/svg">
<path d="M281.401 320.879H78.4082C53.9355 320.879 34.043 300.986 34.043 276.514V73.5205C34.043 49.0479 53.9355 29.1553 78.4082 29.1553H179.922C187.988 29.1553 194.517 35.6836 194.517 43.75C194.517 51.8164 187.988 58.3447 179.922 58.3447H78.4082C70.0342 58.3447 63.2324 65.1465 63.2324 73.5205V276.514C63.2324 284.888 70.0342 291.689 78.4082 291.689H281.401C289.775 291.689 296.577 284.888 296.577 276.514V175C296.577 166.934 303.105 160.405 311.172 160.405C319.238 160.405 325.767 166.934 325.767 175V276.514C325.767 300.986 305.874 320.879 281.401 320.879Z" fill="#293457"/>
<path d="M165.088 258.569C164.473 258.569 163.892 258.535 163.276 258.467L117.305 252.725C110.674 251.904 105.478 246.675 104.658 240.078L98.916 194.106C98.3691 189.629 99.9072 185.151 103.086 181.973L231.123 53.9355C248.589 36.4697 276.992 36.4697 294.458 53.9355L303.447 62.9248C311.924 71.3672 316.572 82.6123 316.572 94.6094C316.572 106.572 311.924 117.817 303.447 126.294L175.41 254.297C172.642 257.065 168.916 258.569 165.088 258.569ZM132.173 225.176L159.79 228.628L282.769 105.649C285.708 102.71 287.349 98.7793 287.349 94.6094C287.349 90.4394 285.708 86.5088 282.769 83.5693L273.779 74.5801C267.661 68.4961 257.783 68.4961 251.699 74.5801L128.721 197.559L132.173 225.176Z" fill="#7C7D86"/>
</svg>
