<svg width="800" height="800" viewBox="0 0 800 800" fill="none" xmlns="http://www.w3.org/2000/svg">
<path d="M303.828 466.719C198.203 466.719 112.188 380.781 112.188 275.078C112.188 169.375 198.125 83.4375 303.828 83.4375C409.531 83.4375 495.469 169.375 495.469 275.078C495.469 380.781 409.453 466.719 303.828 466.719ZM303.828 150.078C234.922 150.078 178.828 206.172 178.828 275.078C178.828 343.984 234.922 400.078 303.828 400.078C372.734 400.078 428.828 343.984 428.828 275.078C428.828 206.172 372.734 150.078 303.828 150.078Z" fill="#252F53"/>
<path d="M461.953 766.641H145.703C85.8594 766.641 37.2656 717.969 37.2656 658.203V585.156C37.2656 483.125 120.234 400.078 222.344 400.078H385.469C487.5 400.078 570.547 483.125 570.547 585.156V658.203C570.391 717.969 521.797 766.641 461.953 766.641ZM222.266 466.719C156.953 466.719 103.906 519.844 103.906 585.078V658.125C103.906 681.172 122.656 699.922 145.703 699.922H461.953C485 699.922 503.75 681.172 503.75 658.125V585.078C503.75 519.766 450.625 466.719 385.312 466.719H222.266Z" fill="#252F53"/>
<path d="M661.875 733.281C643.438 733.281 628.516 718.359 628.516 699.922C628.516 681.484 643.438 666.563 661.875 666.563C684.922 666.563 703.672 647.813 703.672 624.766V551.719C703.672 486.406 650.547 433.359 585.234 433.359H574.062C558.594 433.359 545.156 422.734 541.641 407.656C538.125 392.578 545.391 377.109 559.219 370.156C602.031 348.828 628.672 306.016 628.672 258.359C628.672 189.453 572.578 133.359 503.672 133.359C485.234 133.359 470.312 118.437 470.312 100C470.312 81.5625 485.234 66.6406 503.672 66.6406C609.297 66.6406 695.312 152.578 695.312 258.281C695.312 303.438 679.766 345.703 652.422 379.219C721.406 406.25 770.391 473.437 770.391 551.797V624.844C770.391 684.687 721.719 733.281 661.875 733.281Z" fill="#5F6379"/>
</svg>
