<?xml version="1.0" encoding="iso-8859-1"?>
<!-- Uploaded to: SVG Repo, www.svgrepo.com, Generator: SVG Repo Mixer Tools -->
<svg version="1.1" id="Layer_1" xmlns="http://www.w3.org/2000/svg" xmlns:xlink="http://www.w3.org/1999/xlink" 
	 viewBox="0 0 512 512" xml:space="preserve">
<polygon style="fill:#CEE8FA;" points="196.186,116.459 319.569,83.399 286.509,206.782 "/>
<path style="fill:#2D527C;" d="M330.721,72.247c-3.985-3.982-9.794-5.544-15.235-4.082l-123.383,33.06
	c-5.443,1.459-9.693,5.709-11.152,11.152c-1.459,5.441,0.098,11.25,4.082,15.234l12.046,12.046l-80.595,80.593
	c-6.159,6.159-6.16,16.145,0,22.305l43.928,43.93c2.957,2.957,6.969,4.619,11.152,4.619c4.183,0,8.195-1.662,11.152-4.619
	l58.483-58.483c6.159-6.159,6.159-16.145,0-22.305c-6.159-6.157-16.145-6.157-22.305,0l-47.331,47.331l-21.624-21.624l69.443-69.441
	l55.973,55.973c2.997,2.995,7.025,4.619,11.154,4.619c1.361,0,2.732-0.175,4.082-0.538c5.443-1.459,9.693-5.709,11.152-11.152
	l33.06-123.381C336.261,82.039,334.705,76.231,330.721,72.247z M278.344,176.313l-51.691-51.689l70.61-18.921L278.344,176.313z"/>
<rect x="274.027" y="367.394" style="fill:#CEE8FA;" width="77.989" height="128.836"/>
<path style="fill:#2D527C;" d="M496.229,423.176c8.711,0,15.771-7.062,15.771-15.771V273.348c0-8.709-7.061-15.771-15.771-15.771
	h-77.993c-8.711,0-15.771,7.062-15.771,15.771v207.108h-34.667V367.394c0-8.709-7.061-15.771-15.771-15.771h-77.993
	c-8.711,0-15.771,7.062-15.771,15.771v113.062H145.6V447.58h62.221c8.711,0,15.771-7.062,15.771-15.771s-7.061-15.771-15.771-15.771
	h-77.993c-8.711,0-15.771,7.062-15.771,15.771v48.647H31.543V15.771C31.543,7.062,24.482,0,15.771,0S0,7.062,0,15.771v480.457
	C0,504.938,7.061,512,15.771,512h480.457c8.711,0,15.771-7.062,15.771-15.771s-7.061-15.771-15.771-15.771h-62.221V289.119h46.45
	v118.285C480.457,416.115,487.518,423.176,496.229,423.176z M289.804,480.457v-97.292h46.45v97.29h-46.45V480.457z"/>
</svg>