<svg width="800" height="800" viewBox="0 0 800 800" fill="none" xmlns="http://www.w3.org/2000/svg">
<path fill-rule="evenodd" clip-rule="evenodd" d="M42.1666 147.54C34.7643 95.7223 87.2299 55.977 135.108 77.1324L727.803 339.02C780.767 362.423 780.767 437.577 727.803 460.98L135.108 722.867C87.2299 744.023 34.7643 704.277 42.1666 652.46L66.3673 483.057C68.6673 466.957 80.4859 453.853 96.2636 449.907L295.896 400L96.2636 350.093C80.4859 346.147 68.6673 333.043 66.3673 316.943L42.1666 147.54ZM700.857 400L108.163 138.112L129.828 289.765L428.483 364.427C465.513 373.687 465.513 426.313 428.483 435.573L129.828 510.237L108.163 661.887L700.857 400Z" fill="#252F53"/>
</svg>
