<svg width="800" height="800" viewBox="0 0 800 800" fill="none" xmlns="http://www.w3.org/2000/svg">
<path d="M174.333 291L306 159.333C344.11 121.371 395.709 100.056 449.5 100.056C503.291 100.056 554.89 121.371 593 159.333C630.942 197.386 652.248 248.93 652.248 302.667C652.248 356.403 630.942 407.947 593 446L378.667 660.333C366.239 673.135 351.368 683.312 334.935 690.262C318.502 697.211 300.842 700.792 283 700.792C265.158 700.792 247.498 697.211 231.065 690.262C214.632 683.312 199.761 673.135 187.333 660.333C162.073 634.969 147.89 600.63 147.89 564.833C147.89 529.036 162.073 494.697 187.333 469.333L412 244.667C418.214 238.266 425.649 233.177 433.866 229.703C442.082 226.228 450.912 224.437 459.833 224.437C468.754 224.437 477.585 226.228 485.801 229.703C494.017 233.177 501.453 238.266 507.667 244.667C514.067 250.881 519.156 258.316 522.631 266.532C526.106 274.749 527.896 283.579 527.896 292.5C527.896 301.421 526.106 310.251 522.631 318.468C519.156 326.684 514.067 334.119 507.667 340.333L272.667 573.667" stroke="#384263" stroke-width="66.6667" stroke-linecap="round" stroke-linejoin="round"/>
</svg>
