<svg width="350" height="350" viewBox="0 0 350 350" fill="none" xmlns="http://www.w3.org/2000/svg">
<path d="M295.312 273.438H262.5C261.05 273.438 259.659 272.861 258.633 271.836C257.607 270.81 257.031 269.419 257.031 267.969C257.031 266.518 257.607 265.127 258.633 264.102C259.659 263.076 261.05 262.5 262.5 262.5H289.844V218.75C289.844 207.147 285.234 196.019 277.03 187.814C268.825 179.609 257.697 175 246.094 175C234.491 175 223.363 179.609 215.158 187.814C206.953 196.019 202.344 207.147 202.344 218.75V262.5H229.688C231.138 262.5 232.529 263.076 233.554 264.102C234.58 265.127 235.156 266.518 235.156 267.969C235.156 269.419 234.58 270.81 233.554 271.836C232.529 272.861 231.138 273.438 229.688 273.438H196.875C195.425 273.438 194.034 272.861 193.008 271.836C191.982 270.81 191.406 269.419 191.406 267.969V218.75C191.406 204.246 197.168 190.336 207.424 180.08C217.68 169.824 231.59 164.062 246.094 164.062C260.598 164.063 274.508 169.824 284.764 180.08C295.02 190.336 300.781 204.246 300.781 218.75V267.969C300.781 269.419 300.205 270.81 299.179 271.836C298.154 272.861 296.763 273.438 295.312 273.438Z" fill="#4C8DC2"/>
<path d="M246.094 278.906C237.391 278.906 229.045 275.449 222.892 269.296C216.738 263.142 213.281 254.796 213.281 246.094V218.75C213.281 210.048 216.738 201.702 222.892 195.548C229.045 189.395 237.391 185.938 246.094 185.938C254.796 185.938 263.142 189.395 269.296 195.548C275.449 201.702 278.906 210.048 278.906 218.75V246.094C278.906 254.796 275.449 263.142 269.296 269.296C263.142 275.449 254.796 278.906 246.094 278.906ZM246.094 196.875C240.292 196.875 234.728 199.18 230.626 203.282C226.523 207.384 224.219 212.948 224.219 218.75V246.094C224.219 251.895 226.523 257.459 230.626 261.562C234.728 265.664 240.292 267.969 246.094 267.969C251.895 267.969 257.459 265.664 261.562 261.562C265.664 257.459 267.969 251.895 267.969 246.094V218.75C267.969 212.948 265.664 207.384 261.562 203.282C257.459 199.18 251.895 196.875 246.094 196.875Z" fill="#4C8DC2"/>
<path d="M276.172 224.219H216.016C214.565 224.219 213.174 223.643 212.149 222.617C211.123 221.591 210.547 220.2 210.547 218.75C210.547 217.3 211.123 215.909 212.149 214.883C213.174 213.857 214.565 213.281 216.016 213.281H276.172C277.622 213.281 279.013 213.857 280.039 214.883C281.064 215.909 281.641 217.3 281.641 218.75C281.641 220.2 281.064 221.591 280.039 222.617C279.013 223.643 277.622 224.219 276.172 224.219Z" fill="#4C8DC2"/>
<path d="M247.406 297.391C242.963 297.376 238.707 295.601 235.57 292.454C232.433 289.307 230.672 285.045 230.672 280.602V271.578C230.672 270.128 231.248 268.737 232.274 267.711C233.299 266.686 234.69 266.109 236.141 266.109C237.591 266.109 238.982 266.686 240.008 267.711C241.033 268.737 241.609 270.128 241.609 271.578V280.602C241.609 281.363 241.759 282.117 242.051 282.82C242.342 283.523 242.769 284.162 243.307 284.701C243.846 285.239 244.485 285.666 245.188 285.957C245.891 286.249 246.645 286.398 247.406 286.398C248.168 286.398 248.921 286.249 249.625 285.957C250.328 285.666 250.967 285.239 251.505 284.701C252.044 284.162 252.471 283.523 252.762 282.82C253.053 282.117 253.203 281.363 253.203 280.602V270.375C253.203 268.925 253.779 267.534 254.805 266.508C255.83 265.482 257.221 264.906 258.672 264.906C260.122 264.906 261.513 265.482 262.539 266.508C263.564 267.534 264.141 268.925 264.141 270.375V280.602C264.141 285.045 262.379 289.307 259.243 292.454C256.106 295.601 251.85 297.376 247.406 297.391Z" fill="#4C8DC2"/>
<path d="M314.453 328.125H183.203C181.753 328.125 180.362 327.549 179.336 326.523C178.311 325.498 177.734 324.107 177.734 322.656C177.727 317 178.835 311.397 180.995 306.169C183.155 300.941 186.324 296.19 190.321 292.188C194.318 288.185 199.065 285.01 204.29 282.844C209.516 280.678 215.117 279.562 220.773 279.563H236.141C237.591 279.563 238.982 280.139 240.008 281.164C241.033 282.19 241.609 283.581 241.609 285.031C241.609 286.482 241.033 287.873 240.008 288.898C238.982 289.924 237.591 290.5 236.141 290.5H220.773C216.552 290.49 212.37 291.322 208.474 292.946C204.577 294.571 201.043 296.955 198.078 299.961C193.382 304.639 190.249 310.657 189.109 317.188H308.547C307.248 309.727 303.362 302.962 297.572 298.081C291.781 293.201 284.456 290.516 276.883 290.5H258.672C257.222 290.5 255.831 289.924 254.805 288.898C253.779 287.873 253.203 286.482 253.203 285.031C253.203 283.581 253.779 282.19 254.805 281.164C255.831 280.139 257.222 279.563 258.672 279.563H276.883C288.303 279.577 299.25 284.124 307.319 292.204C315.389 300.284 319.922 311.237 319.922 322.656C319.922 324.107 319.346 325.498 318.32 326.523C317.295 327.549 315.904 328.125 314.453 328.125Z" fill="#4C8DC2"/>
<path d="M322.656 235.156H311.719C310.268 235.156 308.877 234.58 307.852 233.554C306.826 232.529 306.25 231.138 306.25 229.688C306.25 228.237 306.826 226.846 307.852 225.821C308.877 224.795 310.268 224.219 311.719 224.219H317.188V216.453C317.188 181.508 286.945 153.125 249.813 153.125H242.375C205.242 153.125 175 181.508 175 216.453V224.219H180.469C181.919 224.219 183.31 224.795 184.336 225.821C185.361 226.846 185.938 228.237 185.938 229.688C185.938 231.138 185.361 232.529 184.336 233.554C183.31 234.58 181.919 235.156 180.469 235.156H169.531C168.081 235.156 166.69 234.58 165.664 233.554C164.639 232.529 164.062 231.138 164.062 229.688V216.453C164.062 175.492 199.172 142.188 242.375 142.188H249.813C293.016 142.188 328.125 175.492 328.125 216.453V229.688C328.125 231.138 327.549 232.529 326.523 233.554C325.498 234.58 324.107 235.156 322.656 235.156Z" fill="#4C8DC2"/>
<path d="M180.469 240.625C179.018 240.625 177.627 240.049 176.602 239.023C175.576 237.998 175 236.607 175 235.156V224.219C175 222.768 175.576 221.377 176.602 220.352C177.627 219.326 179.018 218.75 180.469 218.75C181.919 218.75 183.31 219.326 184.336 220.352C185.361 221.377 185.938 222.768 185.938 224.219V235.156C185.938 236.607 185.361 237.998 184.336 239.023C183.31 240.049 181.919 240.625 180.469 240.625Z" fill="#4C8DC2"/>
<path d="M311.719 240.625C310.268 240.625 308.877 240.049 307.852 239.023C306.826 237.998 306.25 236.607 306.25 235.156V224.219C306.25 222.768 306.826 221.377 307.852 220.352C308.877 219.326 310.268 218.75 311.719 218.75C313.169 218.75 314.56 219.326 315.586 220.352C316.611 221.377 317.188 222.768 317.188 224.219V235.156C317.188 236.607 316.611 237.998 315.586 239.023C314.56 240.049 313.169 240.625 311.719 240.625Z" fill="#4C8DC2"/>
<path d="M119.109 301.328C113.801 301.315 108.611 299.756 104.173 296.843C99.7346 293.93 96.2406 289.787 94.1172 284.922L24.9375 130.375C23.4673 127.097 22.6575 123.561 22.5545 119.97C22.4514 116.378 23.0572 112.802 24.337 109.445C25.6169 106.088 27.5458 103.016 30.0135 100.405C32.4812 97.7933 35.4393 95.6939 38.7187 94.2265L153.125 43.2031C153.785 42.855 154.51 42.6459 155.255 42.5885C155.999 42.5312 156.747 42.6269 157.453 42.8697C158.159 43.1125 158.808 43.4973 159.359 44.0003C159.911 44.5034 160.354 45.114 160.661 45.7947C160.967 46.4753 161.131 47.2116 161.143 47.9581C161.154 48.7045 161.012 49.4454 160.727 50.1351C160.441 50.8248 160.017 51.4486 159.481 51.9682C158.944 52.4877 158.308 52.8921 157.609 53.1562L43.2031 104.18C41.2085 105.055 39.4082 106.319 37.9073 107.898C36.4063 109.476 35.2348 111.338 34.461 113.375C33.6873 115.411 33.3267 117.581 33.4005 119.758C33.4742 121.935 33.9808 124.075 34.8906 126.055L103.906 280.656C104.782 282.651 106.046 284.451 107.624 285.952C109.203 287.453 111.065 288.624 113.101 289.398C115.137 290.172 117.307 290.533 119.484 290.459C121.661 290.385 123.802 289.878 125.781 288.969L172.758 267.969C173.418 267.621 174.143 267.411 174.887 267.354C175.632 267.297 176.38 267.393 177.086 267.635C177.792 267.878 178.441 268.263 178.992 268.766C179.544 269.269 179.987 269.88 180.293 270.56C180.6 271.241 180.764 271.977 180.775 272.724C180.787 273.47 180.645 274.211 180.359 274.901C180.073 275.59 179.649 276.214 179.113 276.734C178.577 277.253 177.94 277.658 177.242 277.922L130.211 298.922C126.725 300.51 122.939 301.33 119.109 301.328Z" fill="#999999"/>
<path d="M81.1016 154.273C80.0403 154.282 78.9995 153.981 78.1061 153.408C77.2128 152.835 76.5054 152.015 76.0703 151.047C75.0036 148.554 74.6335 145.818 74.9995 143.131C75.3655 140.444 76.4538 137.906 78.1484 135.789C78.8144 134.902 79.1947 133.833 79.2388 132.724C79.283 131.615 78.9888 130.519 78.3954 129.582C77.802 128.644 76.9375 127.909 75.9166 127.475C74.8957 127.04 73.7668 126.926 72.6797 127.148C71.8928 127.331 71.1561 127.685 70.5226 128.187C69.889 128.688 69.3744 129.323 69.0156 130.047C68.6742 130.774 68.4971 131.568 68.4971 132.371C68.4971 133.174 68.6742 133.968 69.0156 134.695C69.3101 135.352 69.4722 136.061 69.4928 136.781C69.5133 137.501 69.3919 138.217 69.1355 138.89C68.879 139.563 68.4926 140.179 67.9981 140.702C67.5037 141.226 66.911 141.647 66.2539 141.941C65.5968 142.236 64.8881 142.398 64.1683 142.419C63.4485 142.439 62.7317 142.318 62.0589 142.061C61.386 141.805 60.7703 141.418 60.2468 140.924C59.7232 140.429 59.3023 139.837 59.0078 139.18C57.8218 136.538 57.3558 133.63 57.6572 130.751C57.9586 127.871 59.0167 125.123 60.724 122.785C62.4312 120.446 64.7269 118.601 67.3778 117.437C70.0287 116.273 72.9405 115.831 75.8175 116.156C78.6944 116.482 81.434 117.563 83.7581 119.289C86.0823 121.016 87.9081 123.327 89.0502 125.987C90.1923 128.648 90.61 131.563 90.2609 134.437C89.9118 137.311 88.8083 140.042 87.0625 142.352C86.5752 142.924 86.2478 143.615 86.1133 144.354C85.9789 145.093 86.0422 145.855 86.2969 146.562C86.8887 147.883 86.9332 149.384 86.4207 150.737C85.9082 152.09 84.8805 153.184 83.5625 153.781C82.7914 154.134 81.9489 154.302 81.1016 154.273Z" fill="#666666"/>
<path d="M87.5 168.602H86.4062L85.3671 168.273L84.4375 167.781C84.1394 167.574 83.8644 167.336 83.6171 167.07C82.6068 166.052 82.0373 164.677 82.0312 163.242C82.0153 162.513 82.1454 161.788 82.414 161.109C82.6969 160.453 83.1056 159.858 83.6171 159.359C83.8644 159.094 84.1394 158.855 84.4375 158.648L85.3671 158.156L86.4062 157.828C87.6492 157.581 88.9396 157.772 90.0568 158.371C91.174 158.969 92.0487 159.937 92.5312 161.109C92.8185 161.784 92.9673 162.509 92.9687 163.242C92.9687 164.693 92.3925 166.084 91.367 167.109C90.3414 168.135 88.9504 168.711 87.5 168.711V168.602Z" fill="#666666"/>
<path d="M94.7187 211.586C93.6667 211.584 92.6377 211.278 91.755 210.706C90.8723 210.134 90.1734 209.319 89.7421 208.359C88.8434 206.404 88.3464 204.288 88.2806 202.136C88.2149 199.985 88.5817 197.843 89.3593 195.836C90.1721 193.77 91.3958 191.89 92.9562 190.311C94.5167 188.732 96.3814 187.486 98.4374 186.648C99.103 186.264 99.8421 186.025 100.607 185.945C101.371 185.866 102.143 185.949 102.874 186.188C103.604 186.427 104.276 186.818 104.845 187.334C105.414 187.85 105.868 188.481 106.178 189.184C106.487 189.888 106.644 190.649 106.64 191.417C106.635 192.186 106.469 192.944 106.151 193.644C105.834 194.344 105.372 194.969 104.797 195.479C104.222 195.988 103.546 196.371 102.812 196.602C101.455 197.237 100.397 198.374 99.8593 199.773C99.3272 201.089 99.3272 202.56 99.8593 203.875C100.451 205.195 100.496 206.696 99.9832 208.049C99.4707 209.402 98.4429 210.497 97.1249 211.094C96.3706 211.438 95.5477 211.606 94.7187 211.586Z" fill="#666666"/>
<path d="M118.398 237.781C116.95 237.761 115.564 237.195 114.516 236.195C114.009 235.684 113.608 235.078 113.336 234.412C113.063 233.746 112.925 233.032 112.93 232.312C112.938 231.598 113.087 230.892 113.367 230.234C113.627 229.563 114.018 228.95 114.516 228.43C115.024 227.917 115.629 227.51 116.295 227.233C116.962 226.955 117.676 226.812 118.398 226.812C119.12 226.812 119.835 226.955 120.502 227.233C121.168 227.51 121.773 227.917 122.281 228.43C122.779 228.95 123.169 229.563 123.43 230.234C123.736 230.883 123.886 231.595 123.867 232.312C123.871 233.032 123.733 233.746 123.461 234.412C123.189 235.078 122.788 235.684 122.281 236.195C121.233 237.195 119.846 237.761 118.398 237.781Z" fill="#666666"/>
<path d="M106.477 117.305C105.23 117.299 104.022 116.867 103.055 116.081C102.087 115.296 101.416 114.203 101.155 112.984C100.893 111.765 101.056 110.493 101.616 109.379C102.176 108.265 103.1 107.376 104.234 106.859L133.602 93.7343C134.95 93.1396 136.48 93.1051 137.855 93.6384C139.229 94.1718 140.335 95.2292 140.93 96.578C141.524 97.9269 141.559 99.4568 141.025 100.831C140.492 102.205 139.435 103.311 138.086 103.906L108.719 117.031C107.998 117.277 107.235 117.37 106.477 117.305Z" fill="#666666"/>
<path d="M115.445 137.266C114.199 137.26 112.991 136.828 112.023 136.042C111.055 135.257 110.385 134.164 110.123 132.945C109.862 131.726 110.024 130.454 110.585 129.34C111.145 128.226 112.069 127.337 113.203 126.82L122.555 122.664C123.857 122.172 125.297 122.194 126.583 122.727C127.869 123.26 128.904 124.263 129.476 125.533C130.047 126.802 130.114 128.241 129.661 129.558C129.208 130.874 128.271 131.968 127.039 132.617L117.687 136.719C116.987 137.058 116.223 137.245 115.445 137.266Z" fill="#666666"/>
<path d="M147.656 247.953C146.981 247.959 146.311 247.829 145.687 247.57L107.844 233.078C101.092 230.472 95.6493 225.296 92.7073 218.685C89.7653 212.073 89.5643 204.564 92.1484 197.805L152.633 39.2109C155.217 32.4396 160.384 26.9714 166.998 24.0079C173.612 21.0443 181.133 20.8279 187.906 23.4062L310.57 70.5468C317.342 73.1313 322.81 78.2983 325.773 84.9124C328.737 91.5265 328.953 99.0467 326.375 105.82L311.172 145.578C310.65 146.956 309.602 148.07 308.258 148.675C306.915 149.28 305.386 149.327 304.008 148.805C302.63 148.283 301.516 147.234 300.911 145.891C300.306 144.547 300.259 143.018 300.781 141.641L315.93 101.937C316.703 99.9199 317.071 97.7694 317.011 95.6094C316.951 93.4495 316.465 91.3226 315.581 89.351C314.696 87.3794 313.431 85.6019 311.858 84.1205C310.285 82.6391 308.435 81.4831 306.414 80.7187L184.023 33.8515C182.006 33.078 179.855 32.7106 177.695 32.7706C175.535 32.8305 173.409 33.3165 171.437 34.2006C169.465 35.0848 167.688 36.3497 166.206 37.9228C164.725 39.4959 163.569 41.3461 162.805 43.3672L102.32 201.961C101.553 203.98 101.192 206.13 101.258 208.288C101.323 210.447 101.815 212.571 102.703 214.539C103.559 216.493 104.798 218.256 106.348 219.721C107.898 221.187 109.727 222.326 111.727 223.07L149.625 237.617C150.689 238.151 151.549 239.016 152.077 240.083C152.604 241.15 152.768 242.36 152.546 243.529C152.323 244.698 151.725 245.762 150.843 246.561C149.96 247.359 148.842 247.848 147.656 247.953Z" fill="#999999"/>
<path d="M179.32 97.7265C178.645 97.7323 177.975 97.6021 177.352 97.3437C176.68 97.0888 176.065 96.7041 175.542 96.2116C175.019 95.7192 174.599 95.1285 174.304 94.4734C174.01 93.8183 173.847 93.1115 173.826 92.3936C173.804 91.6756 173.925 90.9605 174.18 90.289C175.188 87.7702 176.859 85.5711 179.016 83.9248C181.172 82.2785 183.734 81.2462 186.43 80.9374C187.58 80.7803 188.651 80.261 189.487 79.4548C190.322 78.6486 190.88 77.5972 191.078 76.4531C191.24 75.3954 191.088 74.3135 190.64 73.3414C190.193 72.3694 189.471 71.5498 188.562 70.9843C187.879 70.5605 187.11 70.2926 186.311 70.1998C185.512 70.107 184.703 70.1916 183.94 70.4475C183.178 70.7034 182.481 71.1243 181.9 71.6803C181.319 72.2363 180.868 72.9136 180.578 73.664C180.063 75.0201 179.031 76.1162 177.708 76.711C176.385 77.3059 174.88 77.3508 173.523 76.8359C172.167 76.321 171.071 75.2885 170.476 73.9654C169.882 72.6424 169.837 71.1373 170.352 69.7812C171.347 67.0491 173.051 64.6306 175.288 62.7735C177.525 60.9163 180.216 59.6871 183.085 59.2118C185.953 58.7365 188.897 59.0321 191.614 60.0684C194.331 61.1047 196.723 62.8445 198.546 65.1095C200.37 67.3746 201.558 70.0835 201.991 72.959C202.423 75.8345 202.083 78.7731 201.006 81.4741C199.929 84.175 198.153 86.5412 195.861 88.3304C193.569 90.1195 190.843 91.2673 187.961 91.6562C187.2 91.7008 186.465 91.954 185.838 92.3881C185.211 92.8221 184.716 93.4203 184.406 94.1171C184.027 95.1653 183.337 96.0728 182.428 96.7179C181.519 97.3629 180.435 97.7149 179.32 97.7265Z" fill="#666666"/>
<path d="M173.687 112.328C172.253 112.322 170.878 111.752 169.859 110.742C169.347 110.234 168.94 109.629 168.662 108.962C168.385 108.296 168.242 107.581 168.242 106.859C168.242 106.137 168.385 105.423 168.662 104.756C168.94 104.09 169.347 103.485 169.859 102.977C170.884 101.958 172.27 101.386 173.715 101.386C175.16 101.386 176.546 101.958 177.57 102.977C178.069 103.507 178.476 104.117 178.773 104.781C179.116 105.614 179.247 106.518 179.155 107.414C179.064 108.31 178.753 109.169 178.25 109.916C177.747 110.662 177.067 111.273 176.271 111.694C175.475 112.115 174.588 112.333 173.687 112.328Z" fill="#666666"/>
<path d="M152.25 168.547C151.575 168.553 150.905 168.422 150.281 168.164C149.61 167.909 148.995 167.524 148.472 167.032C147.949 166.539 147.528 165.949 147.234 165.294C146.939 164.639 146.777 163.932 146.755 163.214C146.734 162.496 146.854 161.781 147.109 161.109C148.102 158.58 149.769 156.372 151.929 154.723C154.088 153.075 156.658 152.049 159.359 151.758C160.51 151.601 161.581 151.081 162.416 150.275C163.252 149.469 163.809 148.418 164.008 147.273C164.169 146.216 164.017 145.134 163.57 144.162C163.123 143.19 162.4 142.37 161.492 141.805C160.806 141.375 160.033 141.103 159.229 141.009C158.426 140.914 157.611 140.999 156.844 141.258C156.085 141.518 155.393 141.942 154.816 142.5C154.24 143.057 153.793 143.735 153.508 144.484C152.993 145.84 151.96 146.936 150.637 147.531C149.314 148.126 147.809 148.171 146.453 147.656C145.097 147.141 144.001 146.109 143.406 144.786C142.811 143.463 142.766 141.958 143.281 140.601C144.277 137.869 145.98 135.451 148.218 133.594C150.455 131.737 153.146 130.507 156.014 130.032C158.883 129.557 161.827 129.852 164.543 130.889C167.26 131.925 169.653 133.665 171.476 135.93C173.3 138.195 174.488 140.904 174.92 143.779C175.352 146.655 175.013 149.593 173.936 152.294C172.859 154.995 171.083 157.362 168.791 159.151C166.499 160.94 163.772 162.088 160.891 162.476C160.137 162.522 159.409 162.769 158.784 163.193C158.158 163.616 157.658 164.2 157.336 164.883C156.966 165.941 156.28 166.86 155.37 167.516C154.46 168.171 153.371 168.531 152.25 168.547Z" fill="#666666"/>
<path d="M146.617 183.148H145.578C145.216 183.098 144.865 182.987 144.539 182.82C144.203 182.711 143.889 182.545 143.609 182.328L142.789 181.672C141.956 180.844 141.412 179.769 141.237 178.608C141.062 177.447 141.266 176.26 141.818 175.223C142.37 174.186 143.241 173.355 144.302 172.852C145.364 172.349 146.559 172.201 147.711 172.43C148.412 172.581 149.079 172.859 149.68 173.25C149.966 173.452 150.24 173.671 150.5 173.906C151.013 174.415 151.419 175.019 151.697 175.686C151.975 176.352 152.118 177.067 152.118 177.789C152.118 178.511 151.975 179.226 151.697 179.892C151.419 180.559 151.013 181.163 150.5 181.672L149.68 182.328C149.079 182.719 148.412 182.997 147.711 183.148H146.617Z" fill="#666666"/>
<path d="M269.391 107.133C268.715 107.139 268.046 107.008 267.422 106.75L221.43 89.1953C220.75 88.9358 220.129 88.5432 219.603 88.0406C219.077 87.538 218.656 86.9355 218.366 86.2683C218.075 85.6011 217.921 84.8827 217.912 84.1552C217.903 83.4276 218.039 82.7056 218.312 82.0313C218.567 81.3597 218.952 80.745 219.444 80.2221C219.937 79.6993 220.528 79.2786 221.183 78.984C221.838 78.6895 222.545 78.5269 223.263 78.5055C223.981 78.4841 224.696 78.6044 225.367 78.8594L271.359 96.4141C272.577 96.8554 273.599 97.7148 274.243 98.8391C274.886 99.9635 275.11 101.28 274.873 102.554C274.637 103.827 273.956 104.976 272.952 105.794C271.948 106.613 270.686 107.049 269.391 107.023V107.133Z" fill="#666666"/>
<path d="M276.883 133.437C276.21 133.416 275.546 133.287 274.914 133.055L213.609 109.375C212.363 108.783 211.386 107.741 210.876 106.459C210.365 105.176 210.358 103.748 210.856 102.461C211.355 101.174 212.321 100.123 213.562 99.5187C214.803 98.9144 216.226 98.8017 217.547 99.2031L278.906 122.828C280.124 123.269 281.146 124.129 281.79 125.253C282.433 126.377 282.657 127.694 282.42 128.968C282.184 130.241 281.503 131.39 280.499 132.208C279.495 133.027 278.233 133.463 276.937 133.437H276.883Z" fill="#666666"/>
</svg>
