<svg width="800" height="800" viewBox="0 0 800 800" fill="none" xmlns="http://www.w3.org/2000/svg">
<path d="M685 137.5H455L402.5 242.5H107.5V662.5H737.5V137.5H685ZM685 605H165V295H685V605ZM685 242.5H480L505 190H682.5V242.5H685Z" fill="#5F6379"/>
<path d="M642.5 342.5H12.5L107.5 662.5H737.5L642.5 342.5Z" fill="#5F6379"/>
<path d="M773.75 323.325H248.75V774.15H773.75V323.325Z" fill="#252F53"/>
<path d="M754.25 342.85H268.275V754.65H754.25V342.85Z" fill="white"/>
<path d="M773.75 342.85H248.75V379.925H773.75V342.85Z" fill="#252F53"/>
<path d="M580.55 420.925H421.15V440.45H580.55V420.925Z" fill="#252F53"/>
<path d="M665.1 471.325H421.15V490.85H665.1V471.325Z" fill="#252F53"/>
<path d="M628.35 523.375H421.15V542.9H628.35V523.375Z" fill="#252F53"/>
<path d="M697.65 578.675H421.15V598.2H697.65V578.675Z" fill="#252F53"/>
<path d="M613.075 635.6H421.15V655.125H613.075V635.6Z" fill="#252F53"/>
<path d="M661.85 686H424.4V705.525H661.85V686Z" fill="#252F53"/>
<path d="M391.875 420.925H307.3V440.45H391.875V420.925Z" fill="#252F53"/>
<path d="M391.875 471.325H307.3V490.85H391.875V471.325Z" fill="#5F6379"/>
<path d="M391.875 471.325H307.3V490.85H391.875V471.325Z" fill="#252F53"/>
<path d="M391.875 521.75H307.3V541.275H391.875V521.75Z" fill="#252F53"/>
<path d="M391.875 572.175H307.3V591.7H391.875V572.175Z" fill="#252F53"/>
<path d="M391.875 635.6H307.3V655.125H391.875V635.6Z" fill="#252F53"/>
<path d="M391.875 686H307.3V705.525H391.875V686Z" fill="#252F53"/>
</svg>
