<?xml version="1.0" ?>
<!DOCTYPE svg  PUBLIC '-//W3C//DTD SVG 1.1//EN'  'http://www.w3.org/Graphics/SVG/1.1/DTD/svg11.dtd'>
<!-- Uploaded to: SVG Repo, www.svgrepo.com, Generator: SVG Repo Mixer Tools -->
<svg width="800px" height="800px" viewBox="0 0 512 512" enable-background="new 0 0 512 512" id="Layer_1" version="1.1" xml:space="preserve" xmlns="http://www.w3.org/2000/svg" xmlns:xlink="http://www.w3.org/1999/xlink">
<g>
<g>
<circle cx="116.734" cy="419.991" fill="#3C74BA" r="53.947"/>
<path d="M116.734,483.938c-35.261,0-63.947-28.687-63.947-63.947s28.687-63.947,63.947-63.947    c35.26,0,63.946,28.687,63.946,63.947S151.994,483.938,116.734,483.938z M116.734,376.044c-24.232,0-43.947,19.715-43.947,43.947    s19.715,43.947,43.947,43.947s43.946-19.715,43.946-43.947S140.967,376.044,116.734,376.044z" fill="#444B54"/>
</g>
<g>
<circle cx="116.734" cy="255.999" fill="#65A0D6" r="53.947"/>
<path d="M116.734,319.946c-35.261,0-63.947-28.687-63.947-63.947c0-35.26,28.687-63.946,63.947-63.946    c35.26,0,63.946,28.687,63.946,63.946C180.681,291.26,151.994,319.946,116.734,319.946z M116.734,212.053    c-24.232,0-43.947,19.714-43.947,43.946s19.715,43.947,43.947,43.947s43.946-19.715,43.946-43.947    S140.967,212.053,116.734,212.053z" fill="#444B54"/>
</g>
<g>
<circle cx="116.734" cy="92.008" fill="#D9DCE1" r="53.947"/>
<path d="M116.734,155.954c-35.261,0-63.947-28.687-63.947-63.946s28.687-63.946,63.947-63.946    c35.26,0,63.946,28.687,63.946,63.946S151.994,155.954,116.734,155.954z M116.734,48.062c-24.232,0-43.947,19.714-43.947,43.946    s19.715,43.946,43.947,43.946s43.946-19.714,43.946-43.946S140.967,48.062,116.734,48.062z" fill="#444B54"/>
</g>
<g>
<path d="M101.75,245.33c-2.63,0-5.21-1.07-7.07-2.931c-1.86-1.859-2.93-4.439-2.93-7.069s1.069-5.21,2.93-7.08    c1.86-1.86,4.44-2.931,7.07-2.931s5.21,1.07,7.069,2.931c1.86,1.859,2.931,4.439,2.931,7.08c0,2.63-1.07,5.21-2.931,7.069    C106.96,244.26,104.39,245.33,101.75,245.33z" fill="#444B54"/>
</g>
<g>
<path d="M130.25,245.33c-2.63,0-5.21-1.07-7.07-2.931c-1.86-1.859-2.93-4.439-2.93-7.069s1.069-5.21,2.93-7.08    c1.86-1.86,4.44-2.931,7.07-2.931s5.21,1.07,7.069,2.931c1.86,1.859,2.931,4.439,2.931,7.08c0,2.63-1.07,5.21-2.931,7.069    C135.46,244.26,132.89,245.33,130.25,245.33z" fill="#444B54"/>
</g>
<g>
<path d="M117.863,286.674c-13.155,0-23.858-10.702-23.858-23.856c0-5.522,4.478-10,10-10h27.713    c5.522,0,10,4.478,10,10C141.718,275.972,131.017,286.674,117.863,286.674z" fill="#444B54"/>
</g>
<g>
<line fill="#D9DCE1" x1="102.084" x2="102.084" y1="73.179" y2="73.179"/>
<path d="M102.08,83.18c-2.63,0-5.21-1.07-7.07-2.93c-1.86-1.86-2.93-4.44-2.93-7.07s1.069-5.21,2.93-7.07    c1.86-1.859,4.44-2.93,7.07-2.93c2.64,0,5.21,1.07,7.069,2.93c1.87,1.86,2.931,4.44,2.931,7.07s-1.061,5.21-2.931,7.07    C107.29,82.109,104.71,83.18,102.08,83.18z" fill="#444B54"/>
</g>
<g>
<line fill="#D9DCE1" x1="130.584" x2="130.584" y1="73.179" y2="73.179"/>
<path d="M130.58,83.18c-2.63,0-5.2-1.07-7.07-2.93c-1.86-1.86-2.93-4.44-2.93-7.07s1.069-5.21,2.93-7.07    c1.86-1.859,4.44-2.93,7.07-2.93c2.64,0,5.22,1.07,7.069,2.93c1.87,1.86,2.931,4.44,2.931,7.07s-1.061,5.21-2.931,7.07    C135.79,82.109,133.22,83.18,130.58,83.18z" fill="#444B54"/>
</g>
<g>
<path d="M131.385,111.104c0-8.094-6.559-14.651-14.652-14.651c-8.09,0-14.648,6.558-14.648,14.651H131.385z" fill="#D9DCE1"/>
<path d="M131.385,121.104h-29.301c-5.522,0-10-4.478-10-10c0-13.593,11.058-24.651,24.648-24.651    c13.594,0,24.652,11.059,24.652,24.651C141.385,116.627,136.907,121.104,131.385,121.104z" fill="#444B54"/>
</g>
<g>
<path d="M100.189,420.59c-2.63,0-5.199-1.07-7.069-2.93c-1.86-1.87-2.931-4.44-2.931-7.07    c0-2.64,1.07-5.21,2.931-7.08c1.87-1.86,4.439-2.92,7.069-2.92c2.641,0,5.21,1.06,7.08,2.92c1.86,1.86,2.92,4.44,2.92,7.08    c0,2.63-1.06,5.2-2.92,7.07C105.399,419.52,102.819,420.59,100.189,420.59z" fill="#444B54"/>
</g>
<g>
<path d="M134.7,420.59c-2.641,0-5.21-1.07-7.08-2.93c-1.86-1.87-2.931-4.44-2.931-7.07    c0-2.64,1.07-5.22,2.931-7.08c1.859-1.86,4.439-2.92,7.08-2.92c2.63,0,5.199,1.06,7.069,2.92c1.86,1.87,2.931,4.44,2.931,7.08    c0,2.63-1.07,5.2-2.931,7.07C139.899,419.52,137.33,420.59,134.7,420.59z" fill="#444B54"/>
</g>
<g>
<path d="M139.528,450.296H96.195c-5.522,0-10-4.478-10-10v-7.051c0-5.522,4.478-10,10-10h43.333    c5.522,0,10,4.478,10,10v7.051C149.528,445.818,145.051,450.296,139.528,450.296z" fill="#444B54"/>
</g>
<g>
<circle cx="116.734" cy="92.008" fill="#D9DCE1" r="53.947"/>
<path d="M116.734,155.954c-35.261,0-63.947-28.687-63.947-63.946s28.687-63.946,63.947-63.946    c35.26,0,63.946,28.687,63.946,63.946S151.994,155.954,116.734,155.954z M116.734,48.062c-24.232,0-43.947,19.714-43.947,43.946    s19.715,43.946,43.947,43.946s43.946-19.714,43.946-43.946S140.967,48.062,116.734,48.062z" fill="#444B54"/>
</g>
<g>
<path d="M116.734,319.946c-35.261,0-63.947-28.687-63.947-63.947c0-35.26,28.687-63.946,63.947-63.946    c35.26,0,63.946,28.687,63.946,63.946C180.681,291.26,151.994,319.946,116.734,319.946z M116.734,212.053    c-24.232,0-43.947,19.714-43.947,43.946s19.715,43.947,43.947,43.947s43.946-19.715,43.946-43.947    S140.967,212.053,116.734,212.053z" fill="#444B54"/>
</g>
<g>
<path d="M116.734,483.938c-35.261,0-63.947-28.687-63.947-63.947s28.687-63.947,63.947-63.947    c35.26,0,63.946,28.687,63.946,63.947S151.994,483.938,116.734,483.938z M116.734,376.044c-24.232,0-43.947,19.715-43.947,43.947    s19.715,43.947,43.947,43.947s43.946-19.715,43.946-43.947S140.967,376.044,116.734,376.044z" fill="#444B54"/>
</g>
<g>
<path d="M320.213,131.052h-94.666c-5.522,0-10-4.478-10-10V58.008c0-5.522,4.478-10,10-10h94.666    c5.522,0,10,4.478,10,10v63.044C330.213,126.574,325.735,131.052,320.213,131.052z M235.547,111.052h74.666V68.008h-74.666    V111.052z" fill="#444B54"/>
</g>
<g>
<rect fill="#D9DCE1" height="68" width="223.666" x="225.547" y="221.999"/>
<path d="M449.213,299.999H225.547c-5.522,0-10-4.478-10-10v-68c0-5.522,4.478-10,10-10h223.666    c5.522,0,10,4.478,10,10v68C459.213,295.521,454.735,299.999,449.213,299.999z M235.547,279.999h203.666v-48H235.547V279.999z" fill="#444B54"/>
</g>
<g>
<path d="M291.213,463.991h-65.666c-5.522,0-10-4.478-10-10v-68c0-5.522,4.478-10,10-10h65.666    c5.522,0,10,4.478,10,10v68C301.213,459.514,296.735,463.991,291.213,463.991z M235.547,443.991h45.666v-48h-45.666V443.991z" fill="#444B54"/>
</g>
<g>
<path d="M101.75,245.33c-2.63,0-5.21-1.07-7.07-2.931c-1.86-1.859-2.93-4.439-2.93-7.069s1.069-5.21,2.93-7.08    c1.86-1.86,4.44-2.931,7.07-2.931s5.21,1.07,7.069,2.931c1.86,1.859,2.931,4.439,2.931,7.08c0,2.63-1.07,5.21-2.931,7.069    C106.96,244.26,104.39,245.33,101.75,245.33z" fill="#444B54"/>
</g>
<g>
<path d="M130.25,245.33c-2.63,0-5.21-1.07-7.07-2.931c-1.86-1.859-2.93-4.439-2.93-7.069s1.069-5.21,2.93-7.08    c1.86-1.86,4.44-2.931,7.07-2.931s5.21,1.07,7.069,2.931c1.86,1.859,2.931,4.439,2.931,7.08c0,2.63-1.07,5.21-2.931,7.069    C135.46,244.26,132.89,245.33,130.25,245.33z" fill="#444B54"/>
</g>
<g>
<path d="M117.863,286.674c-13.155,0-23.858-10.702-23.858-23.856c0-5.522,4.478-10,10-10h27.713    c5.522,0,10,4.478,10,10C141.718,275.972,131.017,286.674,117.863,286.674z" fill="#444B54"/>
</g>
<g>
<line fill="#D9DCE1" x1="102.084" x2="102.084" y1="73.179" y2="73.179"/>
<path d="M102.08,83.18c-2.63,0-5.21-1.07-7.07-2.93c-1.86-1.86-2.93-4.44-2.93-7.07s1.069-5.21,2.93-7.07    c1.86-1.859,4.44-2.93,7.07-2.93c2.64,0,5.21,1.07,7.069,2.93c1.87,1.86,2.931,4.44,2.931,7.07s-1.061,5.21-2.931,7.07    C107.29,82.109,104.71,83.18,102.08,83.18z" fill="#444B54"/>
</g>
<g>
<line fill="#D9DCE1" x1="130.584" x2="130.584" y1="73.179" y2="73.179"/>
<path d="M130.58,83.18c-2.63,0-5.2-1.07-7.07-2.93c-1.86-1.86-2.93-4.44-2.93-7.07s1.069-5.21,2.93-7.07    c1.86-1.859,4.44-2.93,7.07-2.93c2.64,0,5.22,1.07,7.069,2.93c1.87,1.86,2.931,4.44,2.931,7.07s-1.061,5.21-2.931,7.07    C135.79,82.109,133.22,83.18,130.58,83.18z" fill="#444B54"/>
</g>
<g>
<path d="M131.385,111.104c0-8.094-6.559-14.651-14.652-14.651c-8.09,0-14.648,6.558-14.648,14.651H131.385z" fill="#D9DCE1"/>
<path d="M131.385,121.104h-29.301c-5.522,0-10-4.478-10-10c0-13.593,11.058-24.651,24.648-24.651    c13.594,0,24.652,11.059,24.652,24.651C141.385,116.627,136.907,121.104,131.385,121.104z" fill="#444B54"/>
</g>
<g>
<path d="M100.189,420.59c-2.63,0-5.199-1.07-7.069-2.93c-1.86-1.87-2.931-4.44-2.931-7.07    c0-2.64,1.07-5.21,2.931-7.08c1.87-1.86,4.439-2.92,7.069-2.92c2.641,0,5.21,1.06,7.08,2.92c1.86,1.86,2.92,4.44,2.92,7.08    c0,2.63-1.06,5.2-2.92,7.07C105.399,419.52,102.819,420.59,100.189,420.59z" fill="#444B54"/>
</g>
<g>
<path d="M134.7,420.59c-2.641,0-5.21-1.07-7.08-2.93c-1.86-1.87-2.931-4.44-2.931-7.07    c0-2.64,1.07-5.22,2.931-7.08c1.859-1.86,4.439-2.92,7.08-2.92c2.63,0,5.199,1.06,7.069,2.92c1.86,1.87,2.931,4.44,2.931,7.08    c0,2.63-1.07,5.2-2.931,7.07C139.899,419.52,137.33,420.59,134.7,420.59z" fill="#444B54"/>
</g>
<g>
<path d="M139.528,450.296H96.195c-5.522,0-10-4.478-10-10v-7.051c0-5.522,4.478-10,10-10h43.333    c5.522,0,10,4.478,10,10v7.051C149.528,445.818,145.051,450.296,139.528,450.296z" fill="#444B54"/>
</g>
<g>
<rect fill="#3C74BA" height="63.044" width="94.666" x="225.547" y="58.008"/>
<path d="M320.213,131.052h-94.666c-5.522,0-10-4.478-10-10V58.008c0-5.522,4.478-10,10-10h94.666    c5.522,0,10,4.478,10,10v63.044C330.213,126.574,325.735,131.052,320.213,131.052z M235.547,111.052h74.666V68.008h-74.666    V111.052z" fill="#444B54"/>
</g>
<g>
<rect fill="#D9DCE1" height="68" width="223.666" x="225.547" y="221.999"/>
<path d="M449.213,299.999H225.547c-5.522,0-10-4.478-10-10v-68c0-5.522,4.478-10,10-10h223.666    c5.522,0,10,4.478,10,10v68C459.213,295.521,454.735,299.999,449.213,299.999z M235.547,279.999h203.666v-48H235.547V279.999z" fill="#444B54"/>
</g>
<g>
<rect fill="#65A0D6" height="68" width="65.666" x="225.547" y="385.991"/>
<path d="M291.213,463.991h-65.666c-5.522,0-10-4.478-10-10v-68c0-5.522,4.478-10,10-10h65.666    c5.522,0,10,4.478,10,10v68C301.213,459.514,296.735,463.991,291.213,463.991z M235.547,443.991h45.666v-48h-45.666V443.991z" fill="#444B54"/>
</g>
</g>
</svg>