<svg width="349" height="349" viewBox="0 0 349 349" fill="none" xmlns="http://www.w3.org/2000/svg">
<g clip-path="url(#clip0_6_13)">
<path d="M143.273 62.2339C143.273 55.2669 137.625 49.6188 130.658 49.6188H89.3278C82.3607 49.6188 76.7126 55.2669 76.7126 62.2339C76.7126 69.201 82.3607 74.8491 89.3278 74.8491H130.658C137.625 74.8491 143.273 69.201 143.273 62.2339Z" fill="#7C96B7"/>
<path d="M64.0219 203.681L8.42444 235.78C-2.81788 242.271 -2.79743 258.522 8.42444 265.001L64.0226 297.1C75.2642 303.591 89.3285 295.449 89.3285 282.49V218.291C89.3285 205.311 75.2451 197.2 64.0219 203.681Z" fill="#7C96B7"/>
<path d="M241.134 49.6201H186.806C179.637 49.6201 173.864 55.6002 174.205 62.8447C174.525 69.6297 180.37 74.8497 187.163 74.8497H242.307C287.495 74.8497 324.206 111.831 323.767 157.116C323.332 201.963 286.119 237.776 241.269 237.776H114.559C109.914 237.776 106.149 241.541 106.149 246.187V254.597C106.149 259.241 109.914 263.007 114.559 263.007H242.308C301.346 263.007 349.339 214.806 348.999 155.69C348.66 96.8163 300.008 49.6201 241.134 49.6201Z" fill="#7C96B7"/>
</g>
<defs>
<clipPath id="clip0_6_13">
<rect width="349" height="349" fill="white"/>
</clipPath>
</defs>
</svg>
