<svg width="283" height="120" viewBox="0 0 283 120" fill="none" xmlns="http://www.w3.org/2000/svg">
<rect width="120" height="120" fill="white"/>
<path d="M100.492 34.7C100.492 37.4 99.042 39.85 96.742 41.1L88.042 45.8L80.642 49.75L65.292 58.05C63.642 58.95 61.842 59.4 59.992 59.4C58.142 59.4 56.342 58.95 54.692 58.05L23.2422 41.1C20.9422 39.85 19.4922 37.4 19.4922 34.7C19.4922 32 20.9422 29.55 23.2422 28.3L33.0922 23L40.9422 18.75L54.692 11.35C57.992 9.55 61.992 9.55 65.292 11.35L96.742 28.3C99.042 29.55 100.492 32 100.492 34.7Z" fill="#566577"/>
<path d="M49.4938 63.9505L20.2437 49.3507C17.9937 48.2007 15.3938 48.3507 13.2438 49.6507C11.0938 50.9505 9.84375 53.2505 9.84375 55.7505V83.4005C9.84375 88.2005 12.4938 92.5005 16.7938 94.6505L46.0437 109.25C47.0437 109.75 48.1438 110 49.2438 110C50.544 110 51.844 109.651 52.994 108.901C55.144 107.601 56.3935 105.301 56.3935 102.801V75.1505C56.4435 70.4005 53.7935 66.1005 49.4938 63.9505Z" fill="#566577"/>
<path d="M110.154 55.748V83.398C110.154 88.148 107.504 92.448 103.204 94.598L73.9544 109.248C72.9544 109.748 71.8544 109.998 70.7544 109.998C69.4544 109.998 68.1544 109.648 66.9544 108.898C64.8544 107.598 63.5544 105.298 63.5544 102.798V75.198C63.5544 70.398 66.2044 66.098 70.5044 63.948L81.2544 58.598L88.7544 54.848L99.7544 49.3482C102.004 48.1982 104.604 48.2982 106.754 49.6482C108.854 50.948 110.154 53.248 110.154 55.748Z" fill="#566577"/>
<path d="M88.0555 45.8L80.6555 49.75L33.1055 23L40.9555 18.75L86.8555 44.65C87.3555 44.95 87.7555 45.35 88.0555 45.8Z" fill="#7C96B7"/>
<path d="M88.75 54.844V66.1935C88.75 68.2435 87.05 69.9435 85 69.9435C82.95 69.9435 81.25 68.2435 81.25 66.1935V58.594L88.75 54.844Z" fill="#7C96B7"/>
<rect x="140" y="10" width="4" height="100" rx="1" fill="#260E0E"/>
<path d="M167.616 75.6562V45.2607C167.616 44.626 167.844 44.0889 168.3 43.6494C168.756 43.21 169.301 42.9902 169.936 42.9902H198.085C198.72 42.9902 199.257 43.2181 199.696 43.6738C200.152 44.1296 200.38 44.6748 200.38 45.3096V47.6045C200.38 48.2393 200.152 48.7845 199.696 49.2402C199.257 49.6797 198.72 49.8994 198.085 49.8994H176.82V57.0039H195.131C195.766 57.0039 196.303 57.2318 196.742 57.6875C197.198 58.127 197.426 58.6641 197.426 59.2988V61.5938C197.426 62.2285 197.198 62.7738 196.742 63.2295C196.303 63.6689 195.766 63.8887 195.131 63.8887H176.82V71.0908H198.036C198.655 71.0908 199.184 71.3105 199.623 71.75C200.062 72.1895 200.282 72.7266 200.282 73.3613V75.7051C200.282 76.3398 200.054 76.8851 199.599 77.3408C199.143 77.7803 198.598 78 197.963 78H169.936C169.301 78 168.756 77.7803 168.3 77.3408C167.844 76.8851 167.616 76.3236 167.616 75.6562ZM202.04 45.041C201.942 44.8457 201.894 44.6341 201.894 44.4062C201.894 44.1621 202.04 43.8691 202.333 43.5273C202.642 43.1693 203.074 42.9902 203.627 42.9902H208.974C210.243 42.9902 211.212 43.7633 211.879 45.3096L221.327 66.3545L230.775 45.3096C231.443 43.7796 232.411 43.0065 233.681 42.9902H239.027C239.597 42.9902 240.028 43.1693 240.321 43.5273C240.614 43.8691 240.761 44.1621 240.761 44.4062C240.761 44.6341 240.72 44.8457 240.639 45.041L226.576 75.5098C225.811 77.1699 224.647 78 223.085 78H219.569C218.007 78 216.843 77.1699 216.078 75.5098L202.04 45.041ZM276.332 74.3867C273.012 77.3001 268.129 78.7568 261.684 78.7568C255.255 78.7568 250.372 77.3001 247.035 74.3867C243.699 71.457 242.03 66.8265 242.03 60.4951C242.03 54.1637 243.699 49.5413 247.035 46.6279C250.372 43.7145 255.255 42.2578 261.684 42.2578C268.129 42.2578 273.012 43.7145 276.332 46.6279C279.669 49.5413 281.337 54.1637 281.337 60.4951C281.337 66.8265 279.669 71.457 276.332 74.3867ZM269.667 51.7793C268.023 49.8262 265.362 48.8496 261.684 48.8496C258.021 48.8496 255.36 49.8262 253.7 51.7793C252.056 53.7324 251.234 56.6458 251.234 60.5195C251.234 64.377 252.056 67.2822 253.7 69.2354C255.36 71.1722 258.021 72.1406 261.684 72.1406C265.362 72.1406 268.023 71.1722 269.667 69.2354C271.311 67.2822 272.133 64.377 272.133 60.5195C272.133 56.6458 271.311 53.7324 269.667 51.7793Z" fill="#282D33"/>
</svg>
