<svg width="577" height="267" viewBox="0 0 577 267" fill="none" xmlns="http://www.w3.org/2000/svg">
<path d="M223.595 77.2075C223.595 83.215 220.368 88.6663 215.251 91.4475L195.893 101.905L179.428 110.694L145.275 129.161C141.603 131.164 137.598 132.165 133.482 132.165C129.366 132.165 125.361 131.164 121.69 129.161L51.7139 91.4475C46.5964 88.6663 43.3701 83.215 43.3701 77.2075C43.3701 71.2 46.5964 65.7487 51.7139 62.9675L73.6301 51.175L91.0964 41.7188L121.69 25.2538C129.032 21.2488 137.932 21.2488 145.275 25.2538L215.251 62.9675C220.368 65.7487 223.595 71.2 223.595 77.2075Z" fill="#566577"/>
<path d="M110.124 142.29L45.0423 109.805C40.0361 107.247 34.2511 107.58 29.4673 110.473C24.6836 113.365 21.9023 118.482 21.9023 124.045V185.566C21.9023 196.246 27.7986 205.814 37.3661 210.597L102.447 243.082C104.672 244.195 107.12 244.751 109.567 244.751C112.46 244.751 115.353 243.972 117.912 242.304C122.695 239.411 125.476 234.294 125.476 228.731V167.21C125.587 156.641 119.691 147.074 110.124 142.29Z" fill="#566577"/>
<path d="M245.094 124.039V185.561C245.094 196.129 239.198 205.697 229.63 210.481L164.549 243.077C162.324 244.189 159.876 244.746 157.429 244.746C154.536 244.746 151.644 243.967 148.974 242.298C144.301 239.406 141.409 234.288 141.409 228.726V167.316C141.409 156.636 147.305 147.068 156.873 142.284L180.791 130.381L197.479 122.037L221.954 109.8C226.96 107.241 232.745 107.464 237.529 110.467C242.201 113.359 245.094 118.477 245.094 124.039Z" fill="#566577"/>
<path d="M195.924 101.905L179.459 110.694L73.6597 51.175L91.1259 41.7188L193.254 99.3463C194.366 100.014 195.256 100.904 195.924 101.905Z" fill="#7C96B7"/>
<path d="M197.469 122.028V147.281C197.469 151.842 193.686 155.624 189.125 155.624C184.564 155.624 180.781 151.842 180.781 147.281V130.372L197.469 122.028Z" fill="#7C96B7"/>
<rect x="311.5" y="22.25" width="8.9" height="222.5" rx="1" fill="black"/>
<path d="M388.616 147.656V117.261C388.616 116.626 388.844 116.089 389.3 115.649C389.756 115.21 390.301 114.99 390.936 114.99H419.085C419.72 114.99 420.257 115.218 420.696 115.674C421.152 116.13 421.38 116.675 421.38 117.31V119.604C421.38 120.239 421.152 120.785 420.696 121.24C420.257 121.68 419.72 121.899 419.085 121.899H397.82V129.004H416.131C416.766 129.004 417.303 129.232 417.742 129.688C418.198 130.127 418.426 130.664 418.426 131.299V133.594C418.426 134.229 418.198 134.774 417.742 135.229C417.303 135.669 416.766 135.889 416.131 135.889H397.82V143.091H419.036C419.655 143.091 420.184 143.311 420.623 143.75C421.062 144.189 421.282 144.727 421.282 145.361V147.705C421.282 148.34 421.054 148.885 420.599 149.341C420.143 149.78 419.598 150 418.963 150H390.936C390.301 150 389.756 149.78 389.3 149.341C388.844 148.885 388.616 148.324 388.616 147.656ZM423.04 117.041C422.942 116.846 422.894 116.634 422.894 116.406C422.894 116.162 423.04 115.869 423.333 115.527C423.642 115.169 424.074 114.99 424.627 114.99H429.974C431.243 114.99 432.212 115.763 432.879 117.31L442.327 138.354L451.775 117.31C452.443 115.78 453.411 115.007 454.681 114.99H460.027C460.597 114.99 461.028 115.169 461.321 115.527C461.614 115.869 461.761 116.162 461.761 116.406C461.761 116.634 461.72 116.846 461.639 117.041L447.576 147.51C446.811 149.17 445.647 150 444.085 150H440.569C439.007 150 437.843 149.17 437.078 147.51L423.04 117.041ZM497.332 146.387C494.012 149.3 489.129 150.757 482.684 150.757C476.255 150.757 471.372 149.3 468.035 146.387C464.699 143.457 463.03 138.826 463.03 132.495C463.03 126.164 464.699 121.541 468.035 118.628C471.372 115.715 476.255 114.258 482.684 114.258C489.129 114.258 494.012 115.715 497.332 118.628C500.669 121.541 502.337 126.164 502.337 132.495C502.337 138.826 500.669 143.457 497.332 146.387ZM490.667 123.779C489.023 121.826 486.362 120.85 482.684 120.85C479.021 120.85 476.36 121.826 474.7 123.779C473.056 125.732 472.234 128.646 472.234 132.52C472.234 136.377 473.056 139.282 474.7 141.235C476.36 143.172 479.021 144.141 482.684 144.141C486.362 144.141 489.023 143.172 490.667 141.235C492.311 139.282 493.133 136.377 493.133 132.52C493.133 128.646 492.311 125.732 490.667 123.779Z" fill="#282D33"/>
</svg>
